<svg width="40" height="40" viewBox="0 0 40 40" fill="none" xmlns="http://www.w3.org/2000/svg">
<g clip-path="url(#clip0_1916_1021)">
<path d="M39.9999 12.9412C39.9999 10.995 38.4167 9.41174 36.4705 9.41174C32.4915 9.48719 31.6104 14.9057 35.294 16.2682V30.5882H32.9411V28.2353H30.5881V35.2941H32.9411V32.9412H37.647V16.2682C39.0163 15.7826 39.9999 14.4749 39.9999 12.9412Z" fill="#185A61"/>
<path d="M28.2354 4.70588H22.2348C21.6882 2.02424 19.3114 0 16.4707 0H14.1177C11.277 0 8.90017 2.02424 8.35358 4.70588H2.35303V8.23529H28.2354V4.70588ZM16.4707 5.88235H14.1177V3.52941H16.4707V5.88235Z" fill="#185A61"/>
<path d="M11.7646 16.4706H14.1176V18.8235H11.7646V16.4706Z" fill="#185A61"/>
<path d="M16.4707 16.4706H18.8236V18.8235H16.4707V16.4706Z" fill="#185A61"/>
<path d="M21.1765 16.4706H23.5295V18.8235H21.1765V16.4706Z" fill="#185A61"/>
<path d="M7.05884 16.4706H9.41178V18.8235H7.05884V16.4706Z" fill="#185A61"/>
<path d="M30.5882 10.5883H0V24.7059H30.5882V10.5883ZM25.8824 21.1765H4.70588V14.1177H25.8824V21.1765Z" fill="#185A61"/>
<path d="M2.35303 40H28.2354V27.0588H2.35303V40ZM18.8236 30.2745H23.5295V32.6275H18.8236V30.2745ZM18.8236 34.9804H23.5295V37.3333H18.8236V34.9804ZM14.1177 30.2745H16.4707V32.6275H14.1177V30.2745ZM14.1177 34.9804H16.4707V37.3333H14.1177V34.9804ZM7.05891 30.2745H11.7648V32.6275H7.05891V30.2745ZM7.05891 34.9804H11.7648V37.3333H7.05891V34.9804Z" fill="#185A61"/>
</g>
<defs>
<clipPath id="clip0_1916_1021">
<rect width="40" height="40" fill="white"/>
</clipPath>
</defs>
</svg>
