<svg width="20" height="20" viewBox="0 0 20 20" fill="none" xmlns="http://www.w3.org/2000/svg">
<path fill-rule="evenodd" clip-rule="evenodd" d="M16.2458 2.61082C16.4305 2.49974 16.651 2.46452 16.8611 2.51253C17.0711 2.56054 17.2544 2.68806 17.3725 2.86832L18.1975 4.12665C18.3051 4.29104 18.3511 4.48813 18.3274 4.68314C18.3038 4.87816 18.212 5.05855 18.0683 5.19249L18.0658 5.19582L18.0542 5.20665L18.0067 5.25082L17.8192 5.42999C16.7817 6.43637 15.7757 7.47465 14.8025 8.54332C12.9717 10.5567 10.7975 13.1917 9.33418 15.7483C8.92584 16.4617 7.92834 16.615 7.33668 15.9992L1.93251 10.3842C1.85506 10.3037 1.79459 10.2084 1.75469 10.1041C1.71479 9.99974 1.69627 9.88845 1.70023 9.77682C1.7042 9.66518 1.73056 9.55549 1.77777 9.45425C1.82497 9.35301 1.89205 9.26229 1.97501 9.18749L3.60834 7.71415C3.75188 7.58475 3.93593 7.50925 4.12899 7.50058C4.32205 7.49192 4.51213 7.55062 4.66668 7.66665L7.42418 9.73415C11.7317 5.48665 14.1742 3.85665 16.2458 2.61082ZM16.4208 4.45749C14.5125 5.65082 12.1308 7.38165 8.08918 11.4225C7.94735 11.5643 7.75913 11.6502 7.55905 11.6645C7.35898 11.6787 7.16049 11.6203 7.00001 11.5L4.21501 9.41165L3.73084 9.84832L8.16168 14.4533C9.70001 11.895 11.8175 9.34832 13.57 7.42165C14.4929 6.40789 15.4447 5.42082 16.4242 4.46165L16.4208 4.45749Z" fill="#185A61"/>
</svg>
