<svg width="40" height="40" viewBox="0 0 40 40" fill="none" xmlns="http://www.w3.org/2000/svg">
<g clip-path="url(#clip0_1916_1179)">
<path d="M21.1763 7.10794H23.5292V9.46088H21.1763V7.10794Z" fill="white"/>
<path d="M21.1763 11.8138H23.5292V14.1668H21.1763V11.8138Z" fill="white"/>
<path d="M16.4707 7.10794H18.8236V9.46088H16.4707V7.10794Z" fill="white"/>
<path d="M21.1763 16.5197H23.5292V18.8727H21.1763V16.5197Z" fill="white"/>
<path d="M25.8823 16.5197H28.2353V18.8727H25.8823V16.5197Z" fill="white"/>
<path d="M25.8823 7.10794H28.2353V9.46088H25.8823V7.10794Z" fill="white"/>
<path d="M25.8823 11.8138H28.2353V14.1668H25.8823V11.8138Z" fill="white"/>
<path d="M11.7646 7.10794H14.1176V9.46088H11.7646V7.10794Z" fill="white"/>
<path d="M11.7646 16.5197H14.1176V18.8727H11.7646V16.5197Z" fill="white"/>
<path d="M38.8235 9.46087H40V0.0491028H0V9.46087H1.17647C5.85349 9.63891 5.84988 16.3434 1.17647 16.5197H0V25.9315H23.1915C26.7613 22.7885 32.0778 22.799 35.6297 25.9315H40V16.5197H38.8235C34.1465 16.3417 34.1501 9.6371 38.8235 9.46087ZM30.5882 21.2256H9.41177V4.75499H30.5882V21.2256Z" fill="white"/>
<path d="M16.4707 16.5197H18.8236V18.8727H16.4707V16.5197Z" fill="white"/>
<path d="M11.7646 11.8138H14.1176V14.1668H11.7646V11.8138Z" fill="white"/>
<path d="M16.4707 11.8138H18.8236V14.1668H16.4707V11.8138Z" fill="white"/>
<path d="M36.3726 31.8137C35.8767 28.8577 33.5443 26.5254 30.5883 26.0295V29.4608H28.2354V26.0298C25.2965 26.5228 22.9502 28.8383 22.4512 31.8137H25.8825V34.1667H22.4512C22.9471 37.1227 25.2794 39.455 28.2354 39.9509V36.5196H30.5883V39.9506C33.5273 39.4576 35.8735 37.142 36.3726 34.1667H32.9413V31.8137H36.3726Z" fill="white"/>
</g>
<defs>
<clipPath id="clip0_1916_1179">
<rect width="40" height="40" fill="white"/>
</clipPath>
</defs>
</svg>
