<svg width="40" height="40" viewBox="0 0 40 40" fill="none" xmlns="http://www.w3.org/2000/svg">
<g clip-path="url(#clip0_1916_1171)">
<path d="M23.0584 8.23734L27.4233 0.380411L20.4433 2.12547L15.5386 0L11.8643 2.12287L3.88721 0.527408L8.17139 8.23734H23.0584Z" fill="white"/>
<path d="M27.294 24.3911C26.6018 21.7726 26.2504 19.0783 26.2504 16.3671C26.2504 14.1142 25.5556 12.1676 24.2823 10.6006H17.1663C17.6562 12.4647 18.6317 14.1675 19.9957 15.5315L18.3246 17.2026C17.1866 16.0646 16.2712 14.7324 15.6152 13.2764C14.9591 14.7323 14.0438 16.0646 12.9058 17.2026L11.2347 15.5315C12.5986 14.1675 13.5742 12.4646 14.064 10.6006H6.94809C5.61141 12.2458 4.98002 14.2215 4.98002 16.3671C4.98002 20.0082 4.34398 23.7587 2.98099 27.3923L2.30131 29.2061C0.38893 34.3043 4.05156 40 9.70661 40C17.9583 39.9994 21.5733 40.0016 21.7368 39.9972C22.6493 39.9739 23.5301 39.7983 24.3553 39.4818C19.9045 34.9295 21.4579 26.9506 27.294 24.3911ZM19.1601 24.7174H15.6152C14.0496 24.7771 14.05 27.0212 15.6152 27.0806C19.6113 27.156 20.4968 32.5989 16.7968 33.9673V36.5338H14.4335V34.1705H12.0702V31.8072H15.6152C17.1807 31.7475 17.1803 29.5033 15.6152 29.4439C11.619 29.3686 10.7335 23.9257 14.4335 22.5573V19.9908H16.7968V22.3541H19.1601V24.7174Z" fill="white"/>
<path d="M34.7643 31.8072H38.2107C37.7126 28.8382 35.37 26.4957 32.401 25.9976V29.4439H30.0377V25.9979C27.0859 26.4931 24.7293 28.8188 24.228 31.8072H27.6744V34.1705H24.228C24.7261 37.1395 27.0687 39.4821 30.0377 39.9802V36.5338H32.401V39.9799C35.3528 39.4847 37.7094 37.159 38.2107 34.1705H34.7643V31.8072Z" fill="white"/>
</g>
<defs>
<clipPath id="clip0_1916_1171">
<rect width="40" height="40" fill="white"/>
</clipPath>
</defs>
</svg>
