<svg width="40" height="40" viewBox="0 0 40 40" fill="none" xmlns="http://www.w3.org/2000/svg">
<g clip-path="url(#clip0_1916_1164)">
<path d="M34.7913 31.8428H38.231C37.7339 28.8796 35.3958 26.5415 32.4326 26.0444V29.4841H30.0738V26.0447C27.1277 26.5389 24.7757 28.8601 24.2754 31.8428H27.7151V34.2016H24.2754C24.7725 37.1648 27.1106 39.5029 30.0738 40V36.5603H32.4326V39.9997C35.3787 39.5055 37.7307 37.1842 38.231 34.2016H34.7913V31.8428Z" fill="white"/>
<path d="M30.074 23.6605C30.0739 22.0539 30.0738 0.578596 30.0738 0H1.76904V35.3809H22.1154C20.639 29.9629 24.5802 24.2517 30.074 23.6605ZM26.5357 21.2285H17.1008V18.8698H26.5357V21.2285ZM26.5357 16.5111H17.1008V14.1524H26.5357V16.5111ZM19.4595 4.71745H21.2177L24.177 7.77869V4.71745H26.5357V11.7936H24.7775L21.8182 8.7324V11.7936H19.4595V4.71745ZM5.30713 4.71745H7.66586V7.77869L8.84522 6.55868L10.0246 7.77869V4.71745H12.3833V11.7936H10.625L8.84522 9.95241L7.06541 11.7936H5.30713V4.71745ZM5.30713 14.1524H7.66586V16.5111H5.30713V14.1524ZM5.30713 18.8698H7.66586V21.2285H5.30713V18.8698ZM14.742 30.6635H5.30713V28.3047H14.742V30.6635ZM14.742 25.946H5.30713V23.5873H14.742V25.946ZM14.742 21.2285H10.0246V18.8698H14.742V21.2285ZM14.742 16.5111H10.0246V14.1524H14.742V16.5111ZM14.742 4.71745H17.1008V11.7936H14.742V4.71745ZM17.1008 23.5873H21.8182V25.946H17.1008V23.5873Z" fill="white"/>
</g>
<defs>
<clipPath id="clip0_1916_1164">
<rect width="40" height="40" fill="white"/>
</clipPath>
</defs>
</svg>
