<svg width="40" height="40" viewBox="0 0 40 40" fill="none" xmlns="http://www.w3.org/2000/svg">
<g clip-path="url(#clip0_1916_1156)">
<path d="M20.8832 16.5111L15.3319 10.9597L9.78051 16.5111C7.84399 18.4819 9.9468 21.7004 12.538 20.7022L14.1525 20.0614V23.5873H16.5112V20.0614L18.1257 20.7021C20.7186 21.7005 22.8189 18.4805 20.8832 16.5111Z" fill="white"/>
<path d="M29.4842 23.8858V0H1.17944V35.3809H22.7065C21.354 30.4185 24.564 25.0736 29.4842 23.8858ZM22.408 4.71745H24.7667V7.07618H22.408V4.71745ZM5.8969 4.71745H8.25563V7.07618H5.8969V4.71745ZM8.25563 30.6635H5.8969V28.3047H8.25563V30.6635ZM18.8699 23.2383V25.946H11.7937V23.2383C7.37503 23.4535 4.94727 17.9652 8.11261 14.8432L15.3318 7.62396L22.551 14.8432C25.7177 17.9657 23.2857 23.455 18.8699 23.2383Z" fill="white"/>
<path d="M35.3809 31.8428H38.8206C38.3236 28.8796 35.9854 26.5415 33.0222 26.0444V29.4841H30.6634V26.0447C27.7173 26.5389 25.3653 28.8601 24.865 31.8428H28.3047V34.2016H24.865C25.3621 37.1648 27.7002 39.5029 30.6634 40V36.5603H33.0222V39.9997C35.9683 39.5055 38.3203 37.1842 38.8206 34.2016H35.3809V31.8428Z" fill="white"/>
</g>
<defs>
<clipPath id="clip0_1916_1156">
<rect width="40" height="40" fill="white"/>
</clipPath>
</defs>
</svg>
