<svg width="48" height="48" viewBox="0 0 48 48" fill="none" xmlns="http://www.w3.org/2000/svg">
<rect width="48" height="48" rx="6" fill="#2DB155"/>
<path d="M24 8C24.2231 8 24.4322 8.03406 24.6274 8.10217C24.8226 8.17029 25.0038 8.28608 25.1711 8.44955L34.5399 17.6041C34.8466 17.9038 35 18.2852 35 18.7484C35 19.2116 34.8466 19.593 34.5399 19.8927C34.2053 20.2197 33.808 20.3763 33.3479 20.3627C32.8878 20.3491 32.5044 20.1924 32.1977 19.8927L25.673 13.5581L25.673 38.3653C25.673 38.8284 25.5127 39.2167 25.192 39.53C24.8714 39.8433 24.474 40 24 40C23.526 40 23.1286 39.8433 22.808 39.53C22.4873 39.2167 22.327 38.8284 22.327 38.3653L22.327 13.5581L15.8441 19.8927C15.5095 20.2197 15.1122 20.3831 14.6521 20.3831C14.192 20.3831 13.7947 20.2197 13.4601 19.8927C13.1534 19.5658 13 19.1775 13 18.728C13 18.2784 13.1534 17.9038 13.4601 17.6041L22.8289 8.44955C22.9962 8.28608 23.1774 8.17029 23.3726 8.10217C23.5678 8.03406 23.7769 8 24 8Z" fill="white"/>
</svg>
